<svg height="512" viewBox="0 0 512 512" width="512" xmlns="http://www.w3.org/2000/svg"><g id="flat"><path d="m104 408h64v80h-64z" fill="#fdc9a6"/><path d="m352 120a96 96 0 0 0 -96-96 96 96 0 0 0 -96 96v96.676a84.209 84.209 0 0 1 -12 43.324 84.209 84.209 0 0 0 -12 43.324v32.676h248v-33.373a54.626 54.626 0 0 0 -16-38.627 54.626 54.626 0 0 1 -16-38.627z" fill="#55300b"/><g fill="#fdc9a6"><path d="m288.909 255.219-.857.475a65.994 65.994 0 0 1 -64.1 0l-.857-.475a76 76 0 0 1 -39.095-66.436v-75.283a42.388 42.388 0 0 0 36.348-20.58l11.652-19.42a155.315 155.315 0 0 0 79.675 80.745l16.325 7.255v27.282a76 76 0 0 1 -39.091 66.437z"/><path d="m192 200h-16a24 24 0 0 1 -24-24 24 24 0 0 1 24-24h8v40z"/><path d="m320 200h16a24 24 0 0 0 24-24 24 24 0 0 0 -24-24h-8v40z"/></g><path d="m168 304h-16a56 56 0 0 0 -56 56v48h72z" fill="#f16465"/><path d="m343 304h16a56 56 0 0 1 56 56v48h-72z" fill="#f16465"/><path d="m352 408h56v80h-56z" fill="#fdc9a6"/><path d="m392 488h-40v-80h5.71z" fill="#f6bb92"/><path d="m350.585 371.524-6.585-11.524v-56h-176v56l-6.585 11.524a75.368 75.368 0 0 0 6.585 84.476v32h176v-32a75.368 75.368 0 0 0 6.585-84.476z" fill="#f1746a"/><path d="m256 224a7.976 7.976 0 0 1 -5.657-2.343l-8-8a8 8 0 0 1 -1.932-8.187l8-24a8 8 0 1 1 15.178 5.06l-6.436 19.309 4.5 4.5a8 8 0 0 1 -5.653 13.661z" fill="#55300b"/><path d="m240 176h-32a8 8 0 0 1 0-16h12.687l-10.344-10.343a8 8 0 0 1 11.314-11.314l24 24a8 8 0 0 1 -5.657 13.657z" fill="#55300b"/><path d="m304 176h-32a8 8 0 0 1 -5.657-13.657l24-24a8 8 0 0 1 11.314 11.314l-10.344 10.343h12.687a8 8 0 0 1 0 16z" fill="#55300b"/><path d="m304 320 64 168h-64l-51.473-180z" fill="#fdc9a6"/><path d="m256 312-64 32 8-40h-24l54.589-75.06a31.42 31.42 0 0 1 25.411-12.94 31.42 31.42 0 0 1 25.411 12.94l54.589 75.06h-24l8 40z" fill="#eaeae8"/></g></svg>