<svg id="Layer_1" enable-background="new 0 0 256 256" height="512" viewBox="0 0 256 256" width="512" xmlns="http://www.w3.org/2000/svg"><g><g><g><path d="m239.769 87.669c-2.664-37.382-33.768-66.348-71.245-66.348h-.055c-37.477 0-68.581 28.966-71.245 66.348l-4.277 60.014v6.907c0 8.5 6.89 15.39 15.39 15.39h60.133.055 60.133c8.5 0 15.39-6.89 15.39-15.39v-6.907z" fill="#4671c6"/></g><g><path d="m228.657 171.979h-120.32c-9.589 0-17.39-7.801-17.39-17.39v-6.907c0-.048.001-.095.005-.143l4.277-60.014c2.726-38.246 34.897-68.205 73.24-68.205 38.398 0 70.569 29.959 73.295 68.205l4.277 60.014c.003.048.005.095.005.143v6.907c0 9.59-7.8 17.39-17.389 17.39zm-133.71-24.225v6.836c0 7.383 6.006 13.39 13.39 13.39h120.32c7.383 0 13.39-6.007 13.39-13.39v-6.836l-4.272-59.942c-2.577-36.163-32.996-64.49-69.25-64.49-36.309 0-66.728 28.327-69.305 64.49z" fill="#3762cc"/></g><g><path d="m244.559 234.679v-22.792c0-15.552-12.608-28.16-28.16-28.16h-95.743c-15.552 0-28.16 12.608-28.16 28.16v22.792z" fill="#6bdddd"/></g><g><path d="m168.528 179.658c-10.169 0-19.744-2.493-28.157-6.88v13.203.003c0 15.518 12.576 28.13 28.13 28.13 15.536 0 28.13-12.594 28.13-28.13v-.003-13.174c-8.4 4.369-17.956 6.851-28.103 6.851z" fill="#f9cfcf"/></g><g><path d="m244.559 236.679h-152.062c-1.104 0-2-.896-2-2v-22.791c0-16.63 13.53-30.16 30.16-30.16h17.714v-8.949c0-.699.365-1.348.963-1.71.597-.363 1.341-.386 1.962-.063 8.346 4.353 17.763 6.653 27.233 6.653 9.584 0 18.729-2.229 27.18-6.626.619-.321 1.363-.297 1.96.064.598.363.962 1.011.962 1.71v8.921h17.769c16.63 0 30.16 13.53 30.16 30.16v22.791c-.001 1.104-.896 2-2.001 2zm-150.062-4h148.063v-20.791c0-14.425-11.735-26.16-26.16-26.16h-19.769c-1.104 0-2-.896-2-2v-7.723c-8.146 3.706-17.104 5.653-26.103 5.653-9.021 0-17.997-1.955-26.158-5.678v7.747c0 1.104-.896 2-2 2h-19.714c-14.424 0-26.16 11.735-26.16 26.16v20.792z" fill="#3762cc"/></g><g><path d="m229.129 96.777h-46.008c-13.767 0-26.006-6.515-33.825-16.622-7.11 3.313-15.032 5.173-23.392 5.173h-17.692c-.183 1.901-.285 3.826-.285 5.774v5.674c-10.523-.213-18.871 8.169-18.871 18.303 0 10.82 9.446 19.379 20.472 18.213 6.254 26.57 30.288 46.366 59 46.366 28.714 0 52.747-19.798 59-46.366 11.011 1.164 20.472-7.378 20.472-18.213 0-10.137-8.355-18.515-18.871-18.302z" fill="#f9cfcf"/></g><g><path d="m168.528 181.658c-28.674 0-53.328-18.94-60.538-46.266-5.24.103-10.322-1.762-14.21-5.26-4.273-3.846-6.725-9.333-6.725-15.054 0-5.476 2.164-10.612 6.092-14.462 3.474-3.404 7.952-5.418 12.779-5.784v-3.73c0-1.931.099-3.938.294-5.966.099-1.025.96-1.809 1.991-1.809h17.692c7.86 0 15.447-1.678 22.547-4.985.848-.395 1.855-.15 2.427.589 7.79 10.069 19.542 15.845 32.243 15.845h45.988c5.592-.11 10.845 1.967 14.799 5.842 3.929 3.85 6.092 8.985 6.092 14.461 0 5.721-2.451 11.207-6.723 15.053-3.888 3.499-8.979 5.384-14.212 5.261-7.209 27.326-31.862 46.265-60.536 46.265zm-58.999-50.365c.918 0 1.731.631 1.945 1.542 6.212 26.392 29.674 44.823 57.054 44.823s50.841-18.432 57.053-44.823c.23-.98 1.15-1.627 2.157-1.531 4.694.503 9.383-1.014 12.863-4.146 3.431-3.088 5.399-7.49 5.399-12.079 0-4.392-1.737-8.513-4.892-11.604-3.186-3.122-7.421-4.821-11.939-4.698-.014 0-.027 0-.041 0h-46.008c-13.42 0-25.875-5.87-34.417-16.162-7.217 3.129-14.879 4.714-22.8 4.714h-15.849c-.085 1.282-.128 2.546-.128 3.774v5.674c0 .537-.216 1.053-.6 1.429s-.914.56-1.44.571c-4.498-.108-8.754 1.577-11.938 4.697-3.155 3.092-4.892 7.213-4.892 11.605 0 4.589 1.968 8.991 5.4 12.08 3.479 3.13 8.165 4.646 12.861 4.145.071-.007.142-.011.212-.011z" fill="#3762cc"/></g><g><path d="m229.128 98.776h-46.008c-24.675 0-44.75-20.075-44.75-44.75v-12.268c0-1.104.896-2 2-2s2 .896 2 2v12.269c0 22.47 18.281 40.75 40.75 40.75h46.008c1.104 0 2 .896 2 2s-.895 1.999-2 1.999z" fill="#3762cc"/></g><g><path d="m177.43 162.914h-17.805c-6.624 0-11.994-5.37-11.994-11.994 0-6.624 5.37-11.994 11.994-11.994h17.805c6.624 0 11.994 5.37 11.994 11.994 0 6.624-5.37 11.994-11.994 11.994z" fill="#f9a7a7"/></g><g><path d="m157.487 152.695c-3.046 0-5.514 2.469-5.514 5.514 0 1.638 0 61.302 0 59.841 0 2.521 1.843 4.772 4.352 5.011 2.878.274 5.3-1.982 5.3-4.804v-13.802c0-.557.452-1.009 1.009-1.009s1.009.452 1.009 1.009v22.429c0 2.521 1.843 4.772 4.352 5.011 2.878.274 5.3-1.981 5.3-4.804v-11.315c0-.572.464-1.036 1.036-1.036s1.036.464 1.036 1.036v1.942c0 2.521 1.843 4.772 4.352 5.011 2.878.274 5.3-1.982 5.3-4.804 0-1.559 0-61.13 0-59.716 0-3.046-2.469-5.514-5.514-5.514z" fill="#ffea92"/></g><g><circle cx="165.021" cy="192.613" fill="#eaa97d" r="5.094"/></g><g><circle cx="171.972" cy="168.009" fill="#eaa97d" r="5.094"/></g><g><path d="m211.601 110.561h-5.345c-1.384-1.989-3.683-3.294-6.289-3.294-4.23 0-7.66 3.429-7.66 7.66v8.17c0 4.23 3.429 7.66 7.66 7.66s7.66-3.429 7.66-7.66v-6.939h3.975c1.545 0 2.798-1.253 2.798-2.798-.001-1.546-1.254-2.799-2.799-2.799z" fill="#3762cc"/></g><g><path d="m137.027 107.267c-2.607 0-4.906 1.305-6.289 3.294h-5.345c-1.545 0-2.798 1.253-2.798 2.798s1.253 2.798 2.798 2.798h3.975v6.939c0 4.23 3.429 7.66 7.66 7.66s7.66-3.429 7.66-7.66v-8.17c-.001-4.23-3.431-7.659-7.661-7.659z" fill="#3762cc"/></g></g><g><g><path d="m17.041 178.657 2.656 14.204c.525 2.81 2.978 4.846 5.837 4.846h80.919c2.858 0 5.311-2.037 5.837-4.846l2.656-14.204z" fill="#e0ebfc"/></g><g><path d="m106.453 199.707h-80.919c-3.819 0-7.1-2.725-7.802-6.479l-2.657-14.202c-.109-.585.047-1.188.427-1.646s.944-.723 1.539-.723h97.905c.595 0 1.159.265 1.539.723.38.457.537 1.061.427 1.646l-2.657 14.203c-.702 3.753-3.983 6.478-7.802 6.478zm-87.003-19.05 2.214 11.835c.349 1.863 1.976 3.215 3.871 3.215h80.919c1.895 0 3.522-1.352 3.871-3.214l2.214-11.836z" fill="#3762cc"/></g><g><g><path d="m96.96 154.888h-30.305v10.731h30.305c.048 3.893 3.215 7.034 7.119 7.034 3.934 0 7.123-3.189 7.123-7.123 0-2.095-.91-3.973-2.35-5.277 1.44-1.303 2.35-3.181 2.35-5.277 0-3.934-3.189-7.123-7.123-7.123-3.904 0-7.071 3.142-7.119 7.035z" fill="#e0ebfc"/></g><g><path d="m104.079 174.653c-4.289 0-7.924-3.014-8.876-7.034h-28.548c-1.104 0-2-.896-2-2v-10.731c0-1.104.896-2 2-2h28.547c.953-4.021 4.588-7.034 8.876-7.034 5.03 0 9.123 4.093 9.123 9.123 0 1.9-.602 3.745-1.69 5.276 1.088 1.532 1.69 3.377 1.69 5.277.001 5.031-4.092 9.123-9.122 9.123zm-35.424-11.034h28.305c1.095 0 1.986.88 2 1.976.035 2.789 2.331 5.059 5.119 5.059 2.825 0 5.123-2.298 5.123-5.123 0-1.459-.601-2.807-1.692-3.795-.418-.379-.657-.918-.657-1.482 0-.565.239-1.104.658-1.482 1.091-.987 1.691-2.335 1.691-3.794 0-2.825-2.298-5.123-5.123-5.123-2.788 0-5.084 2.27-5.119 5.059-.014 1.096-.905 1.976-2 1.976h-28.305z" fill="#3762cc"/></g><g><path d="m25.061 160.253c0 9.426 6.003 17.805 14.927 20.838 6.611 2.246 13.809 2.038 20.279-.586l19.264-7.813c3.421-1.387 5.659-4.71 5.659-8.401v-8.075c0-3.691-2.238-7.014-5.659-8.401l-19.264-7.813c-6.47-2.624-13.669-2.832-20.279-.586-8.924 3.032-14.927 11.411-14.927 20.837z" fill="#eaa97d"/></g><g><path d="m49.34 184.637c-3.374 0-6.751-.549-9.996-1.651-9.74-3.311-16.284-12.445-16.284-22.732 0-10.286 6.544-19.421 16.284-22.731 7.064-2.402 14.761-2.177 21.674.626l19.265 7.813c4.196 1.702 6.907 5.728 6.907 10.255v8.075c0 4.527-2.711 8.553-6.907 10.255l-19.264 7.813c-3.737 1.515-7.706 2.277-11.679 2.277zm-8.708-43.328c-8.117 2.759-13.571 10.372-13.571 18.944 0 8.573 5.454 16.187 13.571 18.945 6.154 2.091 12.861 1.896 18.885-.546l19.263-7.813c2.679-1.087 4.411-3.657 4.411-6.548v-8.075c0-2.891-1.731-5.461-4.411-6.548l-19.264-7.813c-5.858-2.377-12.564-2.693-18.884-.546z" fill="#3762cc"/></g></g><g><path d="m118.419 182.416h-104.851c-3.075 0-5.568-2.493-5.568-5.568 0-3.075 2.493-5.568 5.568-5.568h104.851c3.075 0 5.568 2.493 5.568 5.568 0 3.075-2.493 5.568-5.568 5.568z" fill="#e0ebfc"/></g><g><path d="m118.419 184.416h-104.851c-4.173 0-7.568-3.396-7.568-7.568s3.395-7.568 7.568-7.568h104.851c4.173 0 7.568 3.396 7.568 7.568s-3.395 7.568-7.568 7.568zm-104.851-11.137c-1.968 0-3.568 1.601-3.568 3.568s1.601 3.568 3.568 3.568h104.851c1.968 0 3.568-1.601 3.568-3.568s-1.601-3.568-3.568-3.568z" fill="#3762cc"/></g></g><g><path d="m91.424 197.707h-59.918l30.062 14.618c1.156.562 2.425.854 3.711.854h6.056l-2.009 18.964c-.143 1.355.918 2.535 2.281 2.535h24.11c1.267 0 2.293-1.027 2.293-2.293v-19.205-8.886c0-3.639-2.949-6.587-6.586-6.587z" fill="#f9cfcf"/></g><g><path d="m95.717 236.679h-24.11c-1.216 0-2.379-.519-3.192-1.422s-1.205-2.114-1.077-3.323l1.774-16.754h-3.833c-1.581 0-3.167-.365-4.586-1.056l-30.061-14.618c-.838-.407-1.284-1.34-1.075-2.248.209-.907 1.018-1.551 1.949-1.551h59.918c4.734 0 8.586 3.853 8.586 8.587v28.092c0 2.367-1.926 4.293-4.293 4.293zm-55.525-36.972 22.25 10.819c.878.428 1.859.653 2.837.653h6.056c.567 0 1.107.241 1.487.662.379.422.562.984.502 1.549l-2.009 18.965c-.009.086.016.162.073.226.04.045.11.098.219.098h24.11c.162 0 .293-.132.293-.293v-28.092c0-2.529-2.058-4.587-4.586-4.587z" fill="#3762cc"/></g></g></svg>