<svg id="Layer_1" enable-background="new 0 0 128 128" height="512" viewBox="0 0 128 128" width="512" xmlns="http://www.w3.org/2000/svg"><g><path d="m109.98 38.835c-6.709-12.55-14.042-22.074-21.795-28.31-3.876-3.109-8.35-4.753-12.936-4.753-2.604 0-5.104.489-7.644 1.496-1.037.412-2.174.412-3.213 0-2.538-1.007-5.039-1.496-7.643-1.496-4.588 0-9.055 1.639-12.918 4.738-7.762 6.244-15.101 15.774-21.811 28.326-7.745 14.484-7.738 33.209.017 47.703 2.849 5.325 5.811 10.095 8.868 14.309 3.595 14.555 16.756 25.381 32.406 25.381h5.379c15.648 0 28.809-10.824 32.405-25.376 3.057-4.213 6.019-8.985 8.87-14.313 7.754-14.494 7.761-33.22.015-47.705z" fill="#e6e7e8"/><g><path d="m105.099 35.306c-6.647-12.432-13.894-21.852-21.539-28.001-3.698-2.967-7.953-4.533-12.31-4.533-2.473 0-4.853.466-7.274 1.426-.638.252-1.304.38-1.976.38-.673 0-1.337-.128-1.974-.38-2.422-.96-4.802-1.426-7.275-1.426-4.358 0-8.608 1.562-12.291 4.518-7.659 6.159-14.912 15.584-21.559 28.018-7.592 14.198-7.586 32.552.017 46.76 2.864 5.354 5.84 10.14 8.911 14.354-.583-2.431-.9-4.965-.9-7.575v-22.588c0-4.041 2.631-7.611 6.49-8.807l14.566-4.517c2.85-.884 5.945-.436 8.428 1.219l2.495 1.663c1.872 1.248 4.312 1.248 6.184 0l2.495-1.663c2.482-1.655 5.578-2.103 8.428-1.219l14.566 4.517c3.859 1.197 6.49 4.767 6.49 8.807v22.587c0 2.611-.317 5.147-.901 7.579 3.07-4.214 6.047-9.001 8.912-14.358 7.602-14.207 7.608-32.562.017-46.761z" fill="#fa759e"/><g fill="#fff"><path d="m97.071 69.691v11.743c1.605-2.023 3.179-4.175 4.72-6.474 1.99-2.961 3.371-6.184 4.169-9.508-2.698 1.565-5.677 2.984-8.889 4.239z"/><path d="m26.929 69.692c-3.235-1.264-6.234-2.696-8.947-4.274.797 3.336 2.181 6.571 4.178 9.542 1.557 2.323 3.148 4.495 4.77 6.536v-11.804z"/></g><path d="m47.985 52.935c2.85-.884 5.945-.436 8.428 1.219l2.495 1.663c1.872 1.248 4.312 1.248 6.184 0l2.495-1.663c2.482-1.655 5.578-2.103 8.428-1.219l10.606 3.289c-.825-12.883-11.53-23.079-24.621-23.079s-23.796 10.196-24.621 23.079z" fill="#fa759e"/><path d="m27.799 34.788s15.715-6.807 33.602-6.819c17.733-.012 34.75 6.819 34.75 6.819-4.742-5.796-9.709-10.382-14.851-13.68-2.986-1.903-6.401-2.908-9.904-2.908-2.205 0-4.167.371-5.942.937-2.264.712-4.693.712-6.957 0-1.776-.566-3.737-.937-5.942-.937-3.503 0-6.918 1.005-9.884 2.898-5.153 3.308-10.129 7.894-14.872 13.69z" fill="#fff"/><path d="m64.689 121.228h-5.378c-17.884 0-32.382-14.498-32.382-32.382v-22.587c0-4.041 2.631-7.611 6.49-8.807l14.566-4.517c2.85-.884 5.946-.436 8.428 1.219l2.495 1.663c1.872 1.248 4.312 1.248 6.184 0l2.495-1.663c2.482-1.655 5.578-2.103 8.428-1.219l14.566 4.517c3.859 1.197 6.49 4.767 6.49 8.807v22.587c0 17.884-14.498 32.382-32.382 32.382z" fill="#ffd7e5"/><g fill="#d4fbff"><path d="m94.5 89.113c-6.904 0-12.5 5.596-12.5 12.5 0 4.272 2.146 8.039 5.415 10.293 5.841-5.757 9.5-13.715 9.642-22.53-.825-.171-1.68-.263-2.557-.263z"/><path d="m42 101.613c0-6.904-5.596-12.5-12.5-12.5-.877 0-1.732.092-2.557.264.142 8.815 3.801 16.773 9.642 22.53 3.269-2.255 5.415-6.022 5.415-10.294z"/></g><path d="m69.661 108.235h-15.322c-4.968 0-8.995 4.027-8.995 8.995v.838c4.229 2.025 8.965 3.161 13.967 3.161h5.378c5.002 0 9.738-1.136 13.967-3.161v-.838c0-4.968-4.027-8.995-8.995-8.995z" fill="#fa759e"/><path d="m69.661 108.235h-15.322c-4.968 0-8.995 4.027-8.995 8.995v.838c.08.038.164.071.245.109.93-3.977 4.49-6.941 8.75-6.941h15.323c4.26 0 7.82 2.965 8.75 6.941.081-.038.164-.071.245-.109v-.838c-.001-4.968-4.028-8.995-8.996-8.995z" fill="#fff"/><g fill="#6dc9f7"><path d="m90.581 57.452-2.574-.798v15.556c0 5.338 3.937 9.745 9.064 10.506v-16.457c0-4.041-2.631-7.611-6.49-8.807z"/><path d="m33.419 57.452c-3.859 1.197-6.49 4.767-6.49 8.807v16.456c5.126-.761 9.064-5.167 9.064-10.506v-15.555z"/></g><path d="m76.015 52.935c-2.85-.884-5.945-.436-8.428 1.219l-2.495 1.664c-1.872 1.248-4.312 1.248-6.184 0l-2.495-1.664c-2.482-1.655-5.578-2.103-8.428-1.219l-6.718 2.083c1.676 8.162 8.9 14.3 17.558 14.3h6.35c8.658 0 15.882-6.138 17.558-14.3z" fill="#0089ef"/><g fill="#3a2c60"><path d="m105.981 34.834c-6.71-12.551-14.043-22.075-21.795-28.31-3.876-3.109-8.35-4.753-12.937-4.753-2.602 0-5.102.489-7.642 1.497-1.041.412-2.175.412-3.214 0-2.541-1.008-5.041-1.497-7.643-1.497-4.587 0-9.054 1.639-12.918 4.739-7.763 6.244-15.102 15.774-21.812 28.326-7.745 14.484-7.739 33.209.017 47.703 2.849 5.325 5.811 10.094 8.868 14.306 3.594 14.556 16.756 25.383 32.406 25.383h5.378c15.649 0 28.81-10.825 32.405-25.378 3.057-4.212 6.019-8.982 8.87-14.31 7.755-14.494 7.761-33.22.017-47.706zm-69.295 75.725c-5.119-5.331-8.378-12.456-8.722-20.33.51-.068 1.023-.116 1.536-.116 6.341 0 11.5 5.159 11.5 11.5 0 3.494-1.607 6.769-4.314 8.946zm40.97 6.853c-3.956 1.803-8.344 2.816-12.967 2.816h-5.378c-4.623 0-9.011-1.013-12.967-2.816v-.182c0-4.408 3.587-7.994 7.995-7.994h15.322c4.408 0 7.994 3.586 7.994 7.994v.182zm9.658-6.853c-2.706-2.176-4.313-5.452-4.313-8.946 0-6.341 5.159-11.5 11.5-11.5.513 0 1.025.047 1.535.116-.344 7.874-3.604 14.999-8.722 20.33zm8.757-22.346c-.522-.061-1.046-.1-1.57-.1-7.444 0-13.5 6.056-13.5 13.5 0 4.024 1.811 7.802 4.878 10.356-1.89 1.734-3.991 3.241-6.262 4.474-.403-5.144-4.709-9.209-9.954-9.209h-15.324c-5.247 0-9.552 4.065-9.955 9.209-2.271-1.233-4.372-2.74-6.262-4.474 3.067-2.554 4.879-6.333 4.879-10.356 0-7.444-6.056-13.5-13.5-13.5-.525 0-1.049.039-1.571.1v-4.677c5.222-1.186 9.063-5.905 9.063-11.327v-14.819l3.564-1.105c2.19 8.191 9.695 14.033 18.268 14.033h2.175v3.932c0 .553.447 1 1 1s1-.447 1-1v-3.932h2.175c8.575 0 16.079-5.843 18.269-14.033l3.563 1.105v14.82c0 5.422 3.841 10.141 9.063 11.327v4.676zm-35.071-19.894h-2.176c-7.695 0-14.425-5.262-16.357-12.626l5.813-1.803c.87-.27 1.762-.402 2.647-.402 1.734 0 3.446.51 4.93 1.499l2.495 1.663c.816.544 1.721.884 2.647 1.027v10.642zm2-10.642c.927-.143 1.831-.483 2.646-1.027l2.495-1.663c2.239-1.493 5.001-1.896 7.577-1.097l5.813 1.803c-1.932 7.364-8.661 12.626-16.357 12.626h-2.174zm13.311-5.697c-3.15-.977-6.532-.488-9.278 1.343l-2.495 1.663c-1.542 1.028-3.535 1.026-5.075 0l-2.495-1.663c-2.743-1.83-6.124-2.32-9.278-1.343l-9.142 2.835c1.402-10.974 10.316-19.622 21.422-20.572v1.786c0 1.589-.619 3.14-1.797 4.207-1.42 1.286-2.188 3.273-1.739 5.425.439 2.104 2.121 3.833 4.216 4.315 3.732.858 7.046-1.954 7.046-5.54 0-1.699-.747-3.217-1.929-4.256-1.173-1.031-1.735-2.594-1.735-4.155v-1.781c11.106.949 20.02 9.598 21.422 20.572zm-14.91-24.011c-14.122.009-26.884 4.252-31.633 6.039 4.315-5.044 8.829-9.107 13.44-12.067 2.81-1.793 6.041-2.74 9.346-2.74 1.919 0 3.763.291 5.643.891 2.473.778 5.086.776 7.561-.001 1.877-.599 3.721-.89 5.639-.89 3.303 0 6.542.951 9.364 2.749 4.613 2.958 9.141 7.043 13.482 12.13-4.914-1.746-18.644-6.12-32.842-6.111zm-27.686 30.437 1.277-.396v14.2c0 4.334-2.967 8.124-7.063 9.263v-15.214c0-3.623 2.325-6.778 5.786-7.853zm62.356 23.067c-4.097-1.14-7.063-4.929-7.063-9.263v-14.2l1.277.396c3.461 1.074 5.786 4.229 5.786 7.853zm8.13.123c-2.044 3.821-4.147 7.33-6.295 10.563.108-1.09.165-2.195.165-3.313v-7.074c1.551-1.969 3.078-4.058 4.551-6.254 6.863-10.216 6.871-23.415.02-33.627-1.884-2.811-3.808-5.413-5.716-7.735-4.815-5.886-9.891-10.559-15.088-13.892-3.147-2.004-6.758-3.064-10.442-3.064-2.127 0-4.17.322-6.242.982-2.079.654-4.278.653-6.354.001-2.075-.661-4.118-.983-6.246-.983-3.687 0-7.29 1.057-10.424 3.056-5.218 3.35-10.3 8.026-15.104 13.897-1.916 2.333-3.84 4.936-5.717 7.737-6.852 10.212-6.844 23.411.02 33.627 1.485 2.217 3.029 4.328 4.6 6.317v7.011c0 1.117.057 2.22.165 3.309-2.148-3.232-4.25-6.74-6.294-10.559-7.449-13.921-7.455-31.905-.017-45.816 6.582-12.313 13.75-21.637 21.303-27.709 3.504-2.813 7.538-4.299 11.665-4.299 2.345 0 4.604.443 6.905 1.356 1.507.598 3.175.6 4.688 0 2.302-.913 4.561-1.356 6.905-1.356 4.127 0 8.167 1.491 11.684 4.313 7.541 6.064 14.702 15.381 21.284 27.693 7.439 13.914 7.432 31.899-.016 45.819zm-6.13-3.129v-9.187c2.367-.965 4.599-2.021 6.679-3.16-.796 2.891-2.048 5.692-3.789 8.283-.943 1.406-1.912 2.75-2.89 4.064zm-72.142-9.186v9.252c-.996-1.335-1.982-2.702-2.938-4.129-.001 0-.001-.001-.001-.001-1.747-2.601-3.002-5.412-3.797-8.314 2.096 1.151 4.347 2.218 6.736 3.192z"/><path d="m62 76.75c-.553 0-1 .447-1 1v6.167c0 .553.447 1 1 1s1-.447 1-1v-6.167c0-.553-.447-1-1-1z"/><path d="m62 86.333c-.553 0-1 .447-1 1v4.219c0 .553.447 1 1 1s1-.447 1-1v-4.219c0-.553-.447-1-1-1z"/></g></g></g></svg>