<svg height="512" viewBox="0 0 50 59" width="512" xmlns="http://www.w3.org/2000/svg"><g id="Page-1" fill="none" fill-rule="evenodd"><g id="008---Emetophobia" fill-rule="nonzero" transform="translate(-1)"><path id="Shape" d="m38.529 42.58c3.94 3.73 8.67.73 10.59-.81.2130029-.162871.3497053-.4061265.3780704-.6727585s-.0541004-.5332031-.2280704-.7372415c-2.09-2.41-1.269-7.36-1.269-7.36l.03-.19 1.67-7.11c.5191389-2.4510163.3354195-4.9988226-.53-7.35l-2.95-7.27c-.09-.22-.19-.45-.29-.68-.7282945-1.727112-1.803894-3.28605055-3.16-4.58l-6.64-3.73c-3.2862684-.95411617-6.7223851-1.28314215-10.13-.97-3.4076149-.31314215-6.8437316.01588383-10.13.97l-6.64 3.73c-1.35610601 1.29394945-2.43170553 2.852888-3.16 4.58-.1.23-.2.46-.29.68l-2.95 7.27c-.86541953 2.3511774-1.0491389 4.8989837-.53 7.35l1.67 7.11.03.19s.82 4.95-1.27 7.36c-.17397.2040384-.2564355.4706095-.22807039.7372415s.16506748.5098875.37807039.6727585c1.92 1.54 6.65 4.54 10.59.81z" fill="#a56a43"/><path id="Shape" d="m44.779 24h2.221c1.6568542 0 3 1.3431458 3 3v3c0 1.6568542-1.3431458 3-3 3h-42c-1.65685425 0-3-1.3431458-3-3v-3c0-1.6568542 1.34314575-3 3-3h39.78z" fill="#f9c795"/><path id="Shape" d="m29.189 46.73c1.2546716-.2003601 2.4847776-.532187 3.67-.99 1.2144091-.4498328 2.3914007-.9948601 3.52-1.63 6.62-3.87 9.13-12.32 8.49-19.38-.04-.37-.22-3.43-.44-5.88l-1.74-2.98c-.3337003-.1560974-.6927429-.2509388-1.06-.28-3.82-.28-11.37-1.37-14.85-5.49-.1897968-.23657129-.4767035-.37422049-.78-.37422049s-.5902032.1376492-.78.37422049c-3.48 4.12-11.03 5.21-14.85 5.49-.3672571.0290612-.72629967.1239026-1.06.28l-1.74 2.98c-.22 2.45-.4 5.51-.44 5.88-.64 7.06 1.87 15.51 8.49 19.38 1.1285993.6351399 2.3055909 1.1801672 3.52 1.63 1.1852224.457813 2.4153284.7896399 3.67.99z" fill="#fdd7ad"/><path id="Shape" d="m13 22c-.4408769.0005403-.8300902-.2877099-.9581268-.709586-.1280366-.421876.0353166-.8778265.4021268-1.122414 1.9624246-1.2746538 4.2205433-2.0213898 6.556-2.168.5522847 0 1 .4477153 1 1s-.4477153 1-1 1c-1.939455.1466467-3.8113486.7764555-5.445 1.832-.1643469.1095861-.3574677.1680443-.555.168z" fill="#a56a43"/><path id="Shape" d="m29 42h2c1.1032019-.0032948 1.9967052-.8967981 2-2v-1c0-2.209139-1.790861-4-4-4h-6c-2.209139 0-4 1.790861-4 4v1c.0032948 1.1032019.8967981 1.9967052 2 2z" fill="#802d40"/><path id="Shape" d="m20 29.16c-.2653486.0007185-.5199469-.1047939-.707-.293-1.6100975-1.5390923-3.8739988-2.1881645-6.055-1.736-.530291.1182566-1.0579833-.2085331-1.1884139-.7359618s.184127-1.0625027.7084139-1.2050382c2.8611182-.614249 5.8404094.2339251 7.949 2.263.2859079.2859943.3714219.7160366.216678 1.0896546-.1547439.3736179-.5192821.6172591-.923678.6173454z" fill="#35495e"/><path id="Shape" d="m39 22c-.1964074-.0002503-.3883926-.0583327-.552-.167-1.6359824-1.0531524-3.5081336-1.6830447-5.448-1.833-.5522847 0-1-.4477153-1-1s.4477153-1 1-1c2.3351128.1467798 4.5928663.893509 6.555 2.168.3666557.2444851.5300428.7001723.4022708 1.1219349s-.5165789.710164-.9572708.7100651z" fill="#a56a43"/><path id="Shape" d="m32 29.16c-.4043959-.0000863-.7689341-.2437275-.923678-.6173454-.1547439-.373618-.0692299-.8036603.216678-1.0896546 2.1085906-2.0290749 5.0878818-2.877249 7.949-2.263.5273216.1402407.8448735.6773108.7136254 1.2069422-.1312482.5296314-.6628375.8562754-1.1946254.7340578-2.1806679-.4514611-4.443947.19754-6.054 1.736-.1870531.1882061-.4416514.2937185-.707.293z" fill="#35495e"/><path id="Shape" d="m28 32h-4c-.5522847 0-1-.4477153-1-1s.4477153-1 1-1h4c.5522847 0 1 .4477153 1 1s-.4477153 1-1 1z" fill="#f9c795"/><g fill="#2fa8cc"><path id="Shape" d="m2.612 18.21c-1.7725579-1.3185798-2.14057984-3.8244421-.822-5.597s3.8244421-2.1405798 5.597-.822c1.772 1.318 2.427 6.79 2.427 6.79s-5.429.947-7.202-.371z"/><path id="Shape" d="m9.593 6.853c-.69685383-1.27032798-.6522668-2.81818192.11655628-4.04629002.76882302-1.22810811 2.14166852-1.94444264 3.58879522-1.87259096 1.4471268.07185169 2.7422611.92065483 3.3856485 2.21888098 1.022 1.958-.768 7.17-.768 7.17s-5.301-1.512-6.323-3.47z"/><path id="Shape" d="m49.386 18.21c1.7491047-1.3259002 2.1030866-3.8135796.7932533-5.5747484-1.3098333-1.7611687-3.794168-2.1379081-5.5672533-.8442516-1.773 1.318-2.427 6.79-2.427 6.79s5.429.947 7.201-.371z"/><path id="Shape" d="m42.406 6.853c.6968538-1.27032798.6522668-2.81818192-.1165563-4.04629002-.768823-1.22810811-2.1416685-1.94444264-3.5887952-1.87259096-1.4471268.07185169-2.7422611.92065483-3.3856485 2.21888098-1.023 1.958.768 7.17.768 7.17s5.3-1.512 6.323-3.47z"/></g><path id="Shape" d="m26 37c2.7614237 0 5 2.2385763 5 5h-10c0-2.7614237 2.2385763-5 5-5z" fill="#ff5364"/><path id="Shape" d="m43 54c0 2.7614237-2.2385763 5-5 5h-24c-2.5057986-.0094426-4.61629958-1.8750866-4.93312648-4.360793-.3168269-2.4857065 1.25821098-4.8211075 3.68152448-5.4588122 2.4233135-.6377048 4.9438716.6199236 5.891602 2.9396052.01-.01.02-.01.03-.02 2.6615315-1.3663817 4.3336679-4.108222 4.33-7.1v-3c0-1.6568542 1.3431458-3 3-3s3 1.3431458 3 3v3c-.0033632 3.0049974 1.6818749 5.7570375 4.36 7.12v-.01c.2638914-.6251748.6477995-1.1925433 1.13-1.67 1.4354662-1.4149536 3.5801617-1.829638 5.4396179-1.0517692 1.8594561.7778689 3.0700255 2.5961658 3.0703821 4.6117692z" fill="#4fba6f"/><path id="Shape" d="m26 52c-.5522847 0-1-.4477153-1-1v-1c0-.5522847.4477153-1 1-1s1 .4477153 1 1v1c0 .5522847-.4477153 1-1 1z" fill="#7ed09e"/><path id="Shape" d="m23 56c-.5522847 0-1-.4477153-1-1v-1c0-.5522847.4477153-1 1-1s1 .4477153 1 1v1c0 .5522847-.4477153 1-1 1z" fill="#7ed09e"/><path id="Shape" d="m29 56c-.5522847 0-1-.4477153-1-1v-1c0-.5522847.4477153-1 1-1s1 .4477153 1 1v1c0 .5522847-.4477153 1-1 1z" fill="#7ed09e"/><path id="Shape" d="m18.64 52.12c-1.2612366.6396403-2.6558383.9720146-4.07.97-.5522847 0-1-.4477153-1-1s.4477153-1 1-1c1.0158015.0014889 2.0195033-.220418 2.94-.65.4877968.4766604.8724208 1.0484908 1.13 1.68z" fill="#24ae5f"/><path id="Shape" d="m38.51 52.13c0 .5522847-.4477153 1-1 1-1.4258646.0000345-2.8312599-.3393171-4.1-.99-.0179294-.0077266-.0347451-.017816-.05-.03.2638914-.6251748.6477995-1.1925433 1.13-1.67.9427931.4518233 1.9745349.6875524 3.02.69.5522847 0 1 .4477153 1 1z" fill="#24ae5f"/></g></g></svg>