<svg id="Capa_1" enable-background="new 0 0 505.733 505.733" height="512" viewBox="0 0 505.733 505.733" width="512" xmlns="http://www.w3.org/2000/svg" xmlns:xlink="http://www.w3.org/1999/xlink"><linearGradient id="lg1"><stop offset="0" stop-color="#60b7ff"/><stop offset="1" stop-color="#0268b4"/></linearGradient><linearGradient id="SVGID_1_" gradientUnits="userSpaceOnUse" x1="409.526" x2="409.526" xlink:href="#lg1" y1="44.158" y2="101.403"/><linearGradient id="SVGID_2_" gradientUnits="userSpaceOnUse" x1="468.05" x2="468.05" xlink:href="#lg1" y1="65.659" y2="119.205"/><linearGradient id="SVGID_3_" gradientUnits="userSpaceOnUse" x1="426.698" x2="426.698" xlink:href="#lg1" y1="120.659" y2="174.205"/><linearGradient id="SVGID_4_" gradientUnits="userSpaceOnUse" x1="252.866" x2="252.866" y1="323.379" y2="438.153"><stop offset="0" stop-color="#ffe177"/><stop offset="1" stop-color="#fe9738"/></linearGradient><linearGradient id="SVGID_5_" gradientUnits="userSpaceOnUse" x1="444.866" x2="404.866" y1="374.104" y2="374.104"><stop offset="0" stop-color="#fe9738" stop-opacity="0"/><stop offset="1" stop-color="#f46700"/></linearGradient><linearGradient id="lg2"><stop offset="0" stop-color="#fe99a0"/><stop offset="1" stop-color="#fd4755"/></linearGradient><linearGradient id="SVGID_6_" gradientUnits="userSpaceOnUse" x1="218.431" x2="190.769" xlink:href="#lg2" y1="274.814" y2="319.072"/><linearGradient id="SVGID_7_" gradientUnits="userSpaceOnUse" x1="290.206" x2="313.844" xlink:href="#lg2" y1="279.495" y2="317.214"/><linearGradient id="lg3"><stop offset="0" stop-color="#eb9c8d"/><stop offset="1" stop-color="#bb5d4c"/></linearGradient><linearGradient id="SVGID_8_" gradientUnits="userSpaceOnUse" x1="129.293" x2="159.223" xlink:href="#lg3" y1="151.119" y2="181.049"/><linearGradient id="SVGID_9_" gradientUnits="userSpaceOnUse" x1="338.578" x2="380.46" xlink:href="#lg3" y1="145.434" y2="187.316"/><linearGradient id="SVGID_10_" gradientUnits="userSpaceOnUse" x1="145.229" x2="360.504" xlink:href="#lg3" y1="169.047" y2="169.047"/><linearGradient id="lg4"><stop offset="0" stop-color="#537983"/><stop offset="1" stop-color="#3e5959"/></linearGradient><linearGradient id="SVGID_11_" gradientUnits="userSpaceOnUse" x1="206.875" x2="206.875" xlink:href="#lg4" y1="155.866" y2="199.159"/><linearGradient id="SVGID_12_" gradientUnits="userSpaceOnUse" x1="298.858" x2="298.858" xlink:href="#lg4" y1="155.866" y2="199.159"/><linearGradient id="SVGID_13_" gradientUnits="userSpaceOnUse" x1="252.866" x2="252.866" y1="185.938" y2="242.586"><stop offset="0" stop-color="#a44f3e" stop-opacity="0"/><stop offset=".9972" stop-color="#6d3326"/></linearGradient><linearGradient id="SVGID_14_" gradientUnits="userSpaceOnUse" x1="197.917" x2="275.316" xlink:href="#lg4" y1="40.016" y2="117.414"/><linearGradient id="SVGID_15_" gradientUnits="userSpaceOnUse" x1="253.936" x2="253.936" y1="531.036" y2="469.701"><stop offset="0" stop-color="#883f2e"/><stop offset="1" stop-color="#6d3326"/></linearGradient><linearGradient id="SVGID_16_" gradientUnits="userSpaceOnUse" x1="252.866" x2="252.866" y1="451.676" y2="476.632"><stop offset="0" stop-color="#ca6e59"/><stop offset="1" stop-color="#883f2e"/></linearGradient><linearGradient id="SVGID_17_" gradientUnits="userSpaceOnUse" x1="220.312" x2="296.182" y1="273.118" y2="441.876"><stop offset="0" stop-color="#eef5f6"/><stop offset="1" stop-color="#cbe5e8"/></linearGradient><linearGradient id="lg5"><stop offset="0" stop-color="#eef5f6" stop-opacity="0"/><stop offset="1" stop-color="#fff"/></linearGradient><linearGradient id="SVGID_18_" gradientUnits="userSpaceOnUse" x1="283.227" x2="239.165" xlink:href="#lg5" y1="377.393" y2="333.331"/><linearGradient id="SVGID_19_" gradientUnits="userSpaceOnUse" x1="252.866" x2="252.866" y1="410.446" y2="446.838"><stop offset="0" stop-color="#cbe5e8" stop-opacity="0"/><stop offset="1" stop-color="#7ca1b1"/></linearGradient><linearGradient id="SVGID_20_" gradientUnits="userSpaceOnUse" x1="174.496" x2="224.498" xlink:href="#lg5" y1="168.737" y2="218.74"/><g><path d="m402.942 81.228h29.85c3.292 0 5.158 3.95 5.158 7.462s-1.866 7.463-5.158 7.463h-46.75c-3.512 0-4.939-1.865-4.939-4.499 0-1.756.659-3.951 1.866-6.036l30.948-54.762h-25.461c-3.292 0-5.158-3.512-5.158-7.463 0-3.621 1.537-7.462 5.158-7.462h42.361c3.292 0 4.939 1.865 4.939 4.499 0 1.756-.658 3.841-1.865 6.036z" fill="url(#SVGID_1_)"/><path d="m484.885 101.462c2.463 0 4.517 2.875 4.517 6.467 0 3.387-1.745 6.364-4.517 6.364h-32.951c-3.901 0-5.236-2.977-5.236-5.543s1.437-4.825 2.772-6.57l18.169-23.918h-15.705c-2.464 0-4.517-2.874-4.517-6.467 0-3.388 1.745-6.365 4.517-6.365h30.693c2.566 0 4.927 1.642 4.927 5.235 0 2.258-.924 4.722-2.566 6.878l-18.272 23.918h18.169z" fill="url(#SVGID_2_)"/><path d="m443.533 156.462c2.463 0 4.517 2.875 4.517 6.467 0 3.387-1.745 6.364-4.517 6.364h-32.951c-3.901 0-5.236-2.977-5.236-5.543s1.437-4.825 2.772-6.57l18.169-23.918h-15.705c-2.464 0-4.517-2.874-4.517-6.467 0-3.388 1.745-6.365 4.517-6.365h30.693c2.566 0 4.927 1.642 4.927 5.235 0 2.258-.924 4.722-2.566 6.878l-18.272 23.918h18.169z" fill="url(#SVGID_3_)"/><g><g><path d="m452.328 445.749h-398.923v-15.825c0-84.43 68.444-152.873 152.873-152.873h93.176c84.43 0 152.873 68.444 152.873 152.873v15.825z" fill="url(#SVGID_4_)"/><path d="m383.866 302.46v143.289h68.462v-15.825c0-53.224-27.205-100.087-68.462-127.464z" fill="url(#SVGID_5_)"/><g><path d="m176.924 268.675s-22.129 11.064-15.088 20.117c5.179 6.659 31.581 32.363 45.183 45.494 4.51 4.353 11.665 4.279 16.097-.153l29.75-29.75z" fill="url(#SVGID_6_)"/><path d="m328.809 268.675s22.129 11.064 15.088 20.117c-5.179 6.659-31.581 32.363-45.183 45.494-4.51 4.353-11.665 4.279-16.097-.153l-29.75-29.75z" fill="url(#SVGID_7_)"/></g><g><g><g><g><path d="m118.343 167.208c0-17.598 12.215-32.342 28.63-36.217 4.388-1.036 8.582 2.357 8.582 6.865v58.703c0 4.508-4.194 7.901-8.582 6.865-16.414-3.874-28.63-18.619-28.63-36.216z" fill="url(#SVGID_8_)"/><path d="m387.389 167.208c0-17.598-12.216-32.342-28.63-36.217-4.388-1.036-8.582 2.357-8.582 6.865v58.703c0 4.508 4.194 7.901 8.582 6.865 16.415-3.874 28.63-18.619 28.63-36.216z" fill="url(#SVGID_9_)"/></g><path d="m252.866 304.284c-59.447 0-107.638-48.191-107.638-107.637v-55.199c0-59.447 48.191-107.637 107.637-107.637 59.447 0 107.637 48.191 107.637 107.637v55.199c.002 59.446-48.189 107.637-107.636 107.637z" fill="url(#SVGID_10_)"/><g><path d="m221.006 166.039c-3.512 0-6.358 2.846-6.358 6.358 0 4.287-3.487 7.774-7.773 7.774-4.287 0-7.774-3.487-7.774-7.774 0-3.512-2.846-6.358-6.358-6.358s-6.358 2.846-6.358 6.358c0 11.298 9.192 20.49 20.49 20.49s20.489-9.192 20.489-20.49c0-3.512-2.846-6.358-6.358-6.358z" fill="url(#SVGID_11_)"/><path d="m312.99 166.039c-3.512 0-6.358 2.846-6.358 6.358 0 4.287-3.487 7.774-7.774 7.774-4.286 0-7.773-3.487-7.773-7.774 0-3.512-2.846-6.358-6.358-6.358s-6.358 2.846-6.358 6.358c0 11.298 9.191 20.49 20.489 20.49s20.49-9.192 20.49-20.49c0-3.512-2.846-6.358-6.358-6.358z" fill="url(#SVGID_12_)"/></g><path d="m258.813 223.719h-11.893c-9.911 0-17.415-8.956-15.679-18.714l6.817-38.324h29.616l6.817 38.324c1.737 9.758-5.767 18.714-15.678 18.714z" fill="url(#SVGID_13_)"/></g><path d="m157.65 162.06v-12.914c0-16.801 13.62-30.42 30.42-30.42h129.579c16.801 0 30.421 13.62 30.421 30.421v12.914c0 3.431 2.782 6.213 6.213 6.213 3.431 0 6.213-2.782 6.213-6.213v-118.899c0-23.838-19.324-43.162-43.161-43.162h-128.95c-23.837 0-43.161 19.324-43.161 43.161v118.899c0 3.431 2.782 6.213 6.213 6.213 3.431 0 6.213-2.782 6.213-6.213z" fill="url(#SVGID_14_)"/></g></g><g><path d="m459.388 505.733h-410.905c-5.806 0-10.513-4.707-10.513-10.513v-25.481h431.932v25.481c-.001 5.806-4.708 10.513-10.514 10.513z" fill="url(#SVGID_15_)"/><path d="m484.021 476.217h-462.309c-2.972 0-5.381-2.409-5.381-5.381v-19.708c0-2.972 2.409-5.381 5.381-5.381h462.308c2.972 0 5.381 2.409 5.381 5.381v19.708c0 2.972-2.409 5.381-5.38 5.381z" fill="url(#SVGID_16_)"/></g><g><path d="m391.393 248.316h-277.053c-6.069 0-10.988 4.92-10.988 10.988v171.626c0 8.184 6.634 14.818 14.818 14.818h269.394c8.184 0 14.818-6.634 14.818-14.818v-171.625c0-6.069-4.92-10.989-10.989-10.989z" fill="url(#SVGID_17_)"/><circle cx="252.866" cy="347.033" fill="url(#SVGID_18_)" r="26.436"/><path d="m103.351 383.666v47.264c0 8.184 6.634 14.818 14.818 14.818h269.394c8.184 0 14.818-6.634 14.818-14.818v-47.264z" fill="url(#SVGID_19_)"/></g></g></g><path d="m224.193 191.334c0-12.424-10.072-22.496-22.496-22.496-12.424 0-22.496 10.072-22.496 22.496v1.787c0 10.718 4.258 20.997 11.836 28.576 7.579 7.579 17.858 11.836 28.576 11.836h13.302c5.518 0 8.281-6.671 4.379-10.573-8.389-8.387-13.101-19.764-13.101-31.626z" fill="url(#SVGID_20_)"/></g></svg>