<svg id="Layer_1" enable-background="new 0 0 512 512" height="512" viewBox="0 0 512 512" width="512" xmlns="http://www.w3.org/2000/svg"><g><path d="m504.5 218.5h-54.572c-11.344-58.862-49.488-110.086-103.054-137.895-3.677-1.908-8.204-.477-10.112 3.2-1.909 3.677-.476 8.204 3.2 10.112 48.643 25.253 83.512 71.393 94.656 124.582h-15.365c-5.822-25.31-17.596-49.146-34.29-69.27-1.348-1.624-3.316-2.604-5.425-2.703-2.123-.088-4.159.697-5.651 2.188l-48.881 48.881c-.003.003-.006.007-.009.01l-23.086 23.086-.008.008-59.996 59.996-93.19 93.19c-1.492 1.492-2.286 3.545-2.188 5.652.099 2.108 1.08 4.077 2.705 5.425 29.965 24.852 67.883 38.538 106.766 38.538 26.938 0 53.735-6.58 77.492-19.027 3.669-1.923 5.085-6.455 3.163-10.124-1.924-3.671-6.46-5.084-10.124-3.163-21.618 11.327-46.008 17.314-70.531 17.314-32.64 0-64.534-10.596-90.696-29.987l85.014-85.013h153.51c-8.038 31.625-26.212 60.098-51.84 80.914-3.215 2.611-3.705 7.335-1.093 10.55 1.482 1.825 3.645 2.771 5.826 2.771 1.661 0 3.333-.549 4.724-1.679 29.128-23.658 49.489-56.34 57.813-92.557h15.374c-8.164 39.024-29.097 74.562-59.579 100.823-33.068 28.489-75.348 44.178-119.053 44.178s-85.985-15.689-119.052-44.177c-30.482-26.261-51.415-61.799-59.579-100.823h15.378c5.822 25.31 17.596 49.146 34.29 69.27 1.348 1.624 3.316 2.604 5.425 2.703.116.005.232.008.348.008 1.984 0 3.894-.787 5.304-2.196l225.171-225.171c1.492-1.492 2.286-3.545 2.188-5.652-.099-2.108-1.08-4.077-2.705-5.425-29.967-24.851-67.885-38.537-106.768-38.537-17.511 0-34.667 2.691-51.146 7.991-1.226-5.153-3.898-9.75-7.566-13.336 18.815-6.404 38.491-9.655 58.712-9.655 19.012 0 37.744 2.909 55.678 8.647 3.944 1.264 8.166-.912 9.429-4.858 1.262-3.944-.913-8.166-4.858-9.429-19.413-6.211-39.684-9.36-60.249-9.36-27.758 0-54.576 5.656-79.749 16.783h-81.807c-15.215 0-27.593 12.378-27.593 27.592 0 1.892.324 3.803.964 5.681.593 1.738.354 3.545-.656 4.957-.523.73-1.718 1.956-3.935 1.956-15.215 0-27.594 12.378-27.594 27.592 0 4.366 1.672 8.644 4.976 12.749-13.839 1.471-24.655 13.214-24.655 27.437 0 15.215 12.378 27.594 27.593 27.594h20.162c-.593 2.539-1.144 5.092-1.638 7.66h-22.668c-3.139 0-5.824 1.93-6.942 4.667h-13.708c-10.339 0-18.75 8.411-18.75 18.75v28.166c0 10.339 8.411 18.75 18.75 18.75h13.708c1.118 2.737 3.803 4.667 6.942 4.667h22.675c8.365 43.446 31.304 83.087 65.082 112.187 35.789 30.832 81.546 47.812 128.843 47.812s93.054-16.98 128.843-47.813c33.778-29.1 56.717-68.741 65.082-112.187h54.575c4.143 0 7.5-3.357 7.5-7.5v-60c0-4.143-3.357-7.5-7.5-7.5zm-371.015 128.198c-11.825-15.937-20.444-34.068-25.312-53.198h78.51zm213.211-213.211-85.012 85.013h-101.726c-4.143 0-7.5 3.357-7.5 7.5s3.357 7.5 7.5 7.5h86.726l-45 45h-154.782v-45h81.335c4.143 0 7.5-3.357 7.5-7.5s-3.357-7.5-7.5-7.5h-20.068c4.324-17.096 11.535-33.143 21.517-47.846h3.013c15.215 0 27.594-12.379 27.594-27.594 0-.198-.005-.398-.012-.602-.115-3.213 1.036-6.241 3.242-8.528 2.153-2.232 5.048-3.462 8.151-3.462h6.341c11.752 0 21.807-7.39 25.776-17.765 16.707-6.109 34.252-9.204 52.208-9.204 32.641.001 64.535 10.597 90.697 29.988zm-315.745 49.759c0-6.943 5.649-12.592 12.593-12.592 5.454 0 10.357-3.232 12.493-8.235 2.155-5.048 1.084-10.882-2.727-14.859-1.678-1.753-2.68-3.435-2.68-4.499 0-6.943 5.649-12.592 12.68-12.592 6.458-.001 12.307-3 16.048-8.229 3.805-5.317 4.797-12.243 2.655-18.524-.107-.314-.162-.598-.162-.841 0-6.943 5.649-12.592 12.593-12.592h83.571c6.943 0 12.592 5.648 12.592 12.592s-5.648 12.594-12.592 12.594h-6.341c-7.212 0-13.94 2.858-18.947 8.048-5.059 5.244-7.7 12.163-7.435 19.544 0 6.944-5.649 12.594-12.594 12.594h-6.714c-.01 0-.02 0-.03 0l-22.054-.001c-7.184 0-13.913 2.819-18.95 7.939-5.113 5.197-7.863 12.103-7.743 19.454l.002.199c0 4.762-2.657 8.913-6.566 11.053-.04.021-.08.04-.12.062-1.763.941-3.773 1.479-5.908 1.479h-21.071c-6.943 0-12.593-5.65-12.593-12.594zm49.576 22.522c7.06-5.003 11.682-13.23 11.682-22.522l-.004-.454c-.054-3.289 1.167-6.371 3.438-8.68 2.194-2.23 5.127-3.459 8.258-3.459h8.012c-8.873 14.887-15.29 30.913-19.167 47.846h-15.358c.897-4.3 1.946-8.551 3.139-12.731zm-65.527 64.315v-28.166c0-2.067 1.683-3.75 3.75-3.75h13.15v35.666h-13.15c-2.067 0-3.75-1.683-3.75-3.75zm363.515-104.781c11.825 15.937 20.444 34.068 25.312 53.198h-78.508l10.296-10.296c.003-.003.006-.007.009-.01zm-68.197 68.198h54.682v45h-99.682zm186.682 45h-117v-45h117z"/></g></svg>