<?xml version="1.0"?>
<svg xmlns="http://www.w3.org/2000/svg" id="outline" viewBox="0 0 512 512" width="512" height="512"><path d="M408,368a8.00917,8.00917,0,0,1-8,8H40a8.00917,8.00917,0,0,1-8-8V120a8.00917,8.00917,0,0,1,8-8H272V96H40a24.0275,24.0275,0,0,0-24,24V368a24.0275,24.0275,0,0,0,24,24H168v48H128a8.00039,8.00039,0,0,0-8,8v32a8.00039,8.00039,0,0,0,8,8h4.68555l5.65722,5.65723A8.00235,8.00235,0,0,0,144,496h24a8.00235,8.00235,0,0,0,5.65723-2.34277L179.31445,488h89.3711l5.65722,5.65723A8.00235,8.00235,0,0,0,280,496h24a8.00235,8.00235,0,0,0,5.65723-2.34277L315.31445,488H320a8.00039,8.00039,0,0,0,8-8V448a8.00039,8.00039,0,0,0-8-8H280V392H400a24.0275,24.0275,0,0,0,24-24V240H408ZM312,472H136V456H312Zm-48-32H184V392h32v24a8,8,0,0,0,16,0V392h32Z"/><path d="M212.832,280a27.168,27.168,0,0,0,23.9209-40.04785l-46.123-85.65723a34.78817,34.78817,0,0,0-61.25976,0l-46.123,85.65723A27.168,27.168,0,0,0,107.168,280ZM96,252.832a11.20249,11.20249,0,0,1,1.335-5.29394L143.458,161.88086a18.78727,18.78727,0,0,1,33.084,0L222.665,247.53809A11.16724,11.16724,0,0,1,212.832,264H107.168A11.18041,11.18041,0,0,1,96,252.832Z"/><rect x="152" y="176" width="16" height="48"/><circle cx="160" cy="240" r="8"/><path d="M288,176H232v16h48V336H232V296H216v40H168V296H152v40H104V296H88v40H56v16H384V336H360V240a8.00039,8.00039,0,0,0-8-8H296V184A8.00039,8.00039,0,0,0,288,176Zm56,72v88H296V248Z"/><path d="M488,88l-18.65625-.08887,13.166-13.167a8,8,0,0,0,0-11.31348L448.56934,29.49023a8.00358,8.00358,0,0,0-11.31348,0l-13.167,13.166L424,42.62012V24a8.00039,8.00039,0,0,0-8-8H368a8.00039,8.00039,0,0,0-8,8l-.08887,18.65625-13.167-13.166a8.00182,8.00182,0,0,0-11.31348,0L301.49023,63.43066a8,8,0,0,0,0,11.31348L314.62012,88H296a8.00039,8.00039,0,0,0-8,8v48a8.00039,8.00039,0,0,0,8,8l18.65625.08887-13.166,13.167a8,8,0,0,0,0,11.31348l33.94043,33.94043a8,8,0,0,0,11.31348,0L360,197.37988V216a8.00039,8.00039,0,0,0,8,8h48a8.00039,8.00039,0,0,0,8-8l.08887-18.65625,13.167,13.166a8.00182,8.00182,0,0,0,11.31348,0l33.94043-33.94043a8,8,0,0,0,0-11.31348L469.37988,152H488a8.00039,8.00039,0,0,0,8-8V96A8.00039,8.00039,0,0,0,488,88Zm-8,48H469.37988a16.05145,16.05145,0,0,0-11.35058,27.40137l7.50976,7.51074-22.627,22.62695-7.50977-7.50976A16.052,16.052,0,0,0,408,197.37988V208H376V197.37988a16.05145,16.05145,0,0,0-27.40137-11.35058l-7.51074,7.50976-22.627-22.62695,7.50976-7.50977A16.052,16.052,0,0,0,314.62012,136H304V104h10.62012A16.05145,16.05145,0,0,0,325.9707,76.59863l-7.50976-7.51074,22.627-22.62695,7.50977,7.50976A16.052,16.052,0,0,0,376,42.62012V32h32V42.62012A16.05145,16.05145,0,0,0,435.40137,53.9707l7.51074-7.50976,22.627,22.627-7.50976,7.50977A16.052,16.052,0,0,0,469.37988,104H480Z"/><path d="M392,80a40,40,0,1,0,40,40A40.04584,40.04584,0,0,0,392,80Zm0,64a24,24,0,1,1,24-24A24.0275,24.0275,0,0,1,392,144Z"/></svg>
