<svg height="480pt" viewBox="0 0 480 480" width="480pt" xmlns="http://www.w3.org/2000/svg"><path d="m312 240c0 39.765625-32.234375 72-72 72s-72-32.234375-72-72 32.234375-72 72-72 72 32.234375 72 72zm0 0" fill="#c0f5f9"/><path d="m262.113281 246.113281-6.113281-6.113281h-32l-6.113281 6.113281c-11.757813 11.757813-25.886719 47.488281-25.886719 47.488281 27.277344 24.582032 68.722656 24.582032 96 0 0 0-14.128906-35.730468-25.886719-47.488281zm0 0" fill="#63aad1"/><g fill="#fbedbf"><path d="m232 120h16v24h-16zm0 0"/><path d="m249.859375 74.882812 39.988281-48.007812 12.292969 10.238281-39.988281 48.011719zm0 0"/><path d="m177.851562 37.121094 12.292969-10.242188 40 47.996094-12.292969 10.242188zm0 0"/><path d="m306.339844 162.34375 40-40 11.3125 11.3125-40 40zm0 0"/><path d="m405.65625 85.65625-11.3125-11.3125 9.375-9.367188 11.3125 11.3125zm20.6875-20.6875-11.3125-11.3125 11.3125-11.3125 11.3125 11.3125zm0 0"/><path d="m122.34375 133.652344 11.3125-11.3125 40 40-11.3125 11.3125zm0 0"/><path d="m74.34375 85.65625-9.375-9.367188 11.3125-11.3125 9.375 9.367188zm-20.6875-20.6875-11.3125-11.3125 11.3125-11.3125 11.3125 11.3125zm0 0"/><path d="m232 336h16v24h-16zm0 0"/><path d="m249.859375 405.121094 12.289063-10.242188 40 48-12.292969 10.242188zm0 0"/><path d="m177.859375 442.882812 39.984375-48.007812 12.296875 10.238281-39.988281 48.007813zm0 0"/><path d="m306.34375 317.652344 11.3125-11.3125 40 40-11.3125 11.3125zm0 0"/><path d="m426.34375 437.65625-11.3125-11.3125 11.3125-11.3125 11.3125 11.3125zm-22.625-22.632812-9.375-9.367188 11.3125-11.3125 9.375 9.367188zm0 0"/><path d="m122.339844 346.347656 40-39.996094 11.3125 11.3125-40 40zm0 0"/><path d="m53.65625 437.65625-11.3125-11.3125 11.3125-11.3125 11.3125 11.3125zm22.625-22.632812-11.3125-11.3125 9.375-9.367188 11.3125 11.3125zm0 0"/><path d="m400 232h24v16h-24zm0 0"/><path d="m336 232h16v16h-16zm0 0"/><path d="m368 232h16v16h-16zm0 0"/><path d="m56 232h24v16h-24zm0 0"/><path d="m128 232h16v16h-16zm0 0"/><path d="m96 232h16v16h-16zm0 0"/></g><path d="m448 64c-17.671875 0-32-14.328125-32-32s14.328125-32 32-32 32 14.328125 32 32-14.328125 32-32 32zm0 0" fill="#8dc79d"/><path d="m296 64c-17.671875 0-32-14.328125-32-32s14.328125-32 32-32 32 14.328125 32 32-14.328125 32-32 32zm0 0" fill="#8dc79d"/><path d="m184 64c-17.671875 0-32-14.328125-32-32s14.328125-32 32-32 32 14.328125 32 32-14.328125 32-32 32zm0 0" fill="#8dc79d"/><path d="m32 64c-17.671875 0-32-14.328125-32-32s14.328125-32 32-32 32 14.328125 32 32-14.328125 32-32 32zm0 0" fill="#8dc79d"/><path d="m240 128c-17.671875 0-32-14.328125-32-32s14.328125-32 32-32 32 14.328125 32 32-14.328125 32-32 32zm0 0" fill="#aae5c8"/><path d="m368 144c-17.671875 0-32-14.328125-32-32s14.328125-32 32-32 32 14.328125 32 32-14.328125 32-32 32zm0 0" fill="#aae5c8"/><path d="m112 144c-17.671875 0-32-14.328125-32-32s14.328125-32 32-32 32 14.328125 32 32-14.328125 32-32 32zm0 0" fill="#aae5c8"/><path d="m240 416c-17.671875 0-32-14.328125-32-32s14.328125-32 32-32 32 14.328125 32 32-14.328125 32-32 32zm0 0" fill="#aae5c8"/><path d="m368 400c-17.671875 0-32-14.328125-32-32s14.328125-32 32-32 32 14.328125 32 32-14.328125 32-32 32zm0 0" fill="#aae5c8"/><path d="m448 480c-17.671875 0-32-14.328125-32-32s14.328125-32 32-32 32 14.328125 32 32-14.328125 32-32 32zm0 0" fill="#8dc79d"/><path d="m296 480c-17.671875 0-32-14.328125-32-32s14.328125-32 32-32 32 14.328125 32 32-14.328125 32-32 32zm0 0" fill="#8dc79d"/><path d="m184 480c-17.671875 0-32-14.328125-32-32s14.328125-32 32-32 32 14.328125 32 32-14.328125 32-32 32zm0 0" fill="#8dc79d"/><path d="m112 400c-17.671875 0-32-14.328125-32-32s14.328125-32 32-32 32 14.328125 32 32-14.328125 32-32 32zm0 0" fill="#aae5c8"/><path d="m32 480c-17.671875 0-32-14.328125-32-32s14.328125-32 32-32 32 14.328125 32 32-14.328125 32-32 32zm0 0" fill="#8dc79d"/><path d="m32 272c-17.671875 0-32-14.328125-32-32s14.328125-32 32-32 32 14.328125 32 32-14.328125 32-32 32zm0 0" fill="#8dc79d"/><path d="m448 272c-17.671875 0-32-14.328125-32-32s14.328125-32 32-32 32 14.328125 32 32-14.328125 32-32 32zm0 0" fill="#8dc79d"/><path d="m272 224c0 17.671875-14.328125 32-32 32s-32-14.328125-32-32 14.328125-32 32-32 32 14.328125 32 32zm0 0" fill="#6cbae5"/></svg>