<svg id="Flat" height="512" viewBox="0 0 512 512" width="512" xmlns="http://www.w3.org/2000/svg"><path d="m152 56a0 0 0 0 1 0 0v112a0 0 0 0 1 0 0h-48a0 0 0 0 1 0 0v-64a48 48 0 0 1 48-48z" fill="#eba72e"/><path d="m360 56h48a0 0 0 0 1 0 0v112a0 0 0 0 1 0 0 48 48 0 0 1 -48-48v-64a0 0 0 0 1 0 0z" fill="#eba72e" transform="matrix(-1 0 0 -1 768 224)"/><circle cx="136" cy="200" fill="#f0c6a4" r="48"/><circle cx="376" cy="200" fill="#f0c6a4" r="48"/><path d="m312 328h-112a64 64 0 0 1 -64-64v-192h240v192a64 64 0 0 1 -64 64z" fill="#f7cca9"/><path d="m376 56v32h-224c-.6 0-1.21-.01-1.81-.03q-1.86-.045-3.69-.21a63.989 63.989 0 0 1 -58.5-63.76h256a32 32 0 0 1 32 32z" fill="#ffb632"/><g fill="#eba72e"><path d="m192 88h-40c-.6 0-1.21-.01-1.81-.03a83.965 83.965 0 0 1 -9.53-9.52c-13.13-15.4-20.66-35.24-20.66-54.45h16c0 15.46 6.13 31.52 16.83 44.06 10.49 12.31 23.7 19.33 37.35 19.9.61.03 1.21.04 1.82.04z"/><path d="m232 88h-41.77a.1.1 0 0 0 -.05-.04 82.98 82.98 0 0 1 -9.52-9.51c-13.13-15.4-20.66-35.24-20.66-54.45h16c0 15.46 6.13 31.52 16.83 44.06 10.49 12.31 23.7 19.33 37.35 19.9.61.03 1.21.04 1.82.04z"/><path d="m272 88h-41.77a.1.1 0 0 0 -.05-.04 82.98 82.98 0 0 1 -9.52-9.51c-13.13-15.4-20.66-35.24-20.66-54.45h16c0 15.46 6.13 31.52 16.83 44.06 10.49 12.31 23.7 19.33 37.35 19.9.61.03 1.21.04 1.82.04z"/><path d="m312 88h-41.77a.1.1 0 0 0 -.05-.04 82.98 82.98 0 0 1 -9.52-9.51c-13.13-15.4-20.66-35.24-20.66-54.45h16c0 15.46 6.13 31.52 16.83 44.06 10.49 12.31 23.7 19.33 37.35 19.9.61.03 1.21.04 1.82.04z"/><path d="m352 88h-41.77a.1.1 0 0 0 -.05-.04 82.98 82.98 0 0 1 -9.52-9.51c-13.13-15.4-20.66-35.24-20.66-54.45h16c0 15.46 6.13 31.52 16.83 44.06 10.15 11.91 22.83 18.86 36 19.82 1.05.08 2.11.12 3.17.12z"/><path d="m376 85.67v2.33h-27.03c-.05-.04-.09-.08-.14-.12-17.13-15.12-28.83-39.42-28.83-63.88h16c0 27.06 18.12 54.71 40 61.67z"/></g><path d="m216 144h-48a8 8 0 0 1 0-16h48a8 8 0 0 1 0 16z" fill="#596063"/><path d="m344 144h-48a8 8 0 0 1 0-16h48a8 8 0 0 1 0 16z" fill="#596063"/><path d="m256 224a24.027 24.027 0 0 1 -24-24 8 8 0 0 1 16 0 8 8 0 0 0 16 0 8 8 0 0 1 16 0 24.027 24.027 0 0 1 -24 24z" fill="#c2a186"/><path d="m312 296h-112a32 32 0 0 1 -32-32 32 32 0 0 1 32-32h112a32 32 0 0 1 32 32 32 32 0 0 1 -32 32z" fill="#ed6f6d"/><path d="m343.994 208a7.959 7.959 0 0 1 -3.572-.847l-32-16a8 8 0 0 1 0-14.31l32-16a8 8 0 1 1 7.156 14.31l-17.689 8.847 17.689 8.845a8 8 0 0 1 -3.584 15.155z" fill="#596063"/><path d="m168.006 208a8 8 0 0 1 -3.584-15.157l17.689-8.843-17.689-8.845a8 8 0 1 1 7.156-14.31l32 16a8 8 0 0 1 0 14.31l-32 16a7.963 7.963 0 0 1 -3.572.845z" fill="#596063"/><path d="m376 376h-72v-48h-96v48h-72a64 64 0 0 0 -64 64v48h368v-48a64 64 0 0 0 -64-64z" fill="#60b8d1"/><path d="m64 392a8 8 0 0 1 -5.657-13.657l64-64a8 8 0 0 1 11.314 11.314l-64 64a7.976 7.976 0 0 1 -5.657 2.343z" fill="#3dc285"/><path d="m448 392a7.974 7.974 0 0 1 -5.657-2.343l-64-64a8 8 0 0 1 11.314-11.314l64 64a8 8 0 0 1 -5.657 13.657z" fill="#3dc285"/><path d="m400 488-80-40v40l-64-40-64 40v-40l-80 40 72-192h144z" fill="#e9eef2"/><circle cx="296" cy="344" fill="#35a872" r="16"/><path d="m328 424a7.974 7.974 0 0 1 -5.657-2.343l-16-16a8 8 0 0 1 11.314-11.314l16 16a8 8 0 0 1 -5.657 13.657z" fill="#3dc285"/><path d="m272 248a16 16 0 0 1 -32 0v-16h32z" fill="#eb423f"/><path d="m224 432a8 8 0 0 1 -8-8v-80a8 8 0 0 1 16 0v80a8 8 0 0 1 -8 8z" fill="#3dc285"/><path d="m264 392h-80a8 8 0 0 1 0-16h80a8 8 0 0 1 0 16z" fill="#3dc285"/><path d="m192 424a8 8 0 0 1 -5.657-13.657l64-64a8 8 0 1 1 11.314 11.314l-64 64a7.976 7.976 0 0 1 -5.657 2.343z" fill="#3dc285"/><path d="m256 424a7.976 7.976 0 0 1 -5.657-2.343l-64-64a8 8 0 0 1 11.314-11.314l64 64a8 8 0 0 1 -5.657 13.657z" fill="#3dc285"/><path d="m224 416a32 32 0 1 1 32-32 32.036 32.036 0 0 1 -32 32zm0-48a16 16 0 1 0 16 16 16.019 16.019 0 0 0 -16-16z" fill="#35a872"/><circle cx="224" cy="384" fill="#3dc285" r="16"/></svg>