<svg id="Capa_1" enable-background="new 0 0 494.928 494.928" height="512" viewBox="0 0 494.928 494.928" width="512" xmlns="http://www.w3.org/2000/svg"><g><path d="m362.748 401.524-32.39-18.91c-3.22-1.88-5.21-5.34-5.21-9.08v-83.67h-85.6v83.67c0 3.74-1.98 7.2-5.21 9.08l-32.39 18.91 19.377 44.145 144.445 2.09z" fill="#ffdfcf"/><g id="XMLID_506_"><g><path d="m260.808 289.864h-21.26v83.67c0 3.74-1.98 7.2-5.21 9.08l-32.39 18.91 19.377 44.145 18.652.27-10.767-24.53 32.39-18.91c3.23-1.88 5.21-5.34 5.21-9.08v-7.803c0-6.864 4.616-12.803 11.218-14.682 14.287-4.065 27.287-11.872 37.79-22.913l9.332-9.806v-28.466-19.885z" fill="#ffcebf"/></g></g><g><g id="XMLID_504_"><g><path d="m439.118 472.684 1.823 9.12c1.261 6.306-3.563 12.19-9.994 12.19h-297.198c-6.431 0-11.255-5.883-9.994-12.19l1.823-9.12c3.83-19.14 15.67-35.72 32.52-45.56l43.85-25.6 20.96 13.14c36.6 21.91 82.29 21.91 118.89 0l20.95-13.14 43.85 25.6c16.86 9.84 28.69 26.42 32.52 45.56z" fill="#a6e7f0"/></g></g><g><path d="m447.378 161.624c28.48 17.04 47.55 48.19 47.55 83.8 0 53.89-43.68 97.58-97.57 97.58-28.62 0-54.36-12.32-72.21-31.94l-162.66-167.15c-5.6-5.15-9.98-11.35-12.98-18.16-2.99-6.82-4.58-14.25-4.58-21.85 0-56.87 46.1-102.97 102.97-102.97h83.49c64.05 0 115.97 51.92 115.97 115.96z" fill="#cdbfba"/></g><path d="m377.448 224.574v21.21c0 19.82-16.06 35.89-35.89 35.89h-9.29l.05 14.97c.01 3.21-1.22 6.3-3.43 8.63l-27.56 28.96c-11.72 12.32-27.84 19.49-44.84 19.94l-68.85 1.83c-4.97.13-9.51-2.8-11.44-7.39l-8.83-21.02c-1.55-3.7.12-7.97 3.78-9.63l22.84-10.35c3-1.36 5-4.26 5.21-7.54l1.28-20.15c.32-5.04-3.63-9.34-8.68-9.45l-29.66-.67c-3.28-.07-5.89-2.75-5.89-6.02v-8.44h-13.71c-4.915 0-8.9-3.985-8.9-8.9v-8.82c0-2.18.8-4.28 2.24-5.9l30.87-34.81-.17-55.13v-7.71c0-5.82 6.51-9.27 11.33-6l11.38 7.73c36.62 24.85 78.98 39.92 123.06 43.79l7.791.684c5.506.483 9.71 5.126 9.647 10.652l-.358 31.224c-.04 3.1 3.6 4.79 5.94 2.77l14.86-12.82c2.99-2.57 6.81-3.99 10.75-3.99 4.55 0 8.67 1.84 11.65 4.82s4.82 7.09 4.82 11.64z" fill="#ffdfcf"/><g><path d="m350.292 258.699c-4.143 0-7.5-3.357-7.5-7.5v-7.469c0-4.143 3.357-7.5 7.5-7.5s7.5 3.357 7.5 7.5v7.469c0 4.142-3.357 7.5-7.5 7.5z" fill="#ffcebf"/></g><g fill="#86e8d0"><path d="m88.729 230.153c5.266 2.041 11.071 11.534 14.404 17.744 1.58 2.944.16 6.61-2.992 7.721-6.647 2.342-17.333 5.446-22.599 3.405-7.972-3.089-11.931-12.056-8.842-20.028 3.09-7.973 12.057-11.931 20.029-8.842z"/><path d="m88.729 364.756c5.266-2.041 11.071-11.534 14.404-17.744 1.58-2.944.16-6.61-2.992-7.721-6.647-2.342-17.333-5.446-22.599-3.405-7.972 3.089-11.931 12.056-8.842 20.028 3.09 7.972 12.057 11.931 20.029 8.842z"/><path d="m34.842 294.587c2.264 1.92 2.264 5.401 0 7.321-5.229 4.435-14.25 11.322-19.86 11.322-8.274-.001-14.982-6.708-14.982-14.983s6.708-14.982 14.982-14.982c5.61 0 14.632 6.886 19.86 11.322z"/></g><g><path d="m145.092 305.747h-13.982c-4.143 0-7.5-3.357-7.5-7.5s3.357-7.5 7.5-7.5h13.982c4.143 0 7.5 3.357 7.5 7.5s-3.357 7.5-7.5 7.5z" fill="#a6e7f0"/></g><g><path d="m85.717 305.747h-8.454c-4.143 0-7.5-3.357-7.5-7.5s3.357-7.5 7.5-7.5h8.454c4.143 0 7.5 3.357 7.5 7.5s-3.357 7.5-7.5 7.5z" fill="#a6e7f0"/></g><g><path d="m36.538 247.87c-.889 0-1.792-.159-2.672-.495l-13.124-5.009c-3.87-1.477-5.811-5.812-4.333-9.681 1.476-3.87 5.81-5.812 9.681-4.333l13.124 5.009c3.87 1.477 5.811 5.812 4.333 9.681-1.14 2.991-3.988 4.828-7.009 4.828z" fill="#a6e7f0"/></g><g><path d="m23.418 368.637c-3.021 0-5.868-1.838-7.009-4.828-1.478-3.869.463-8.204 4.333-9.681l13.124-5.009c3.871-1.478 8.205.463 9.681 4.333 1.478 3.869-.463 8.204-4.333 9.681l-13.124 5.009c-.88.336-1.783.495-2.672.495z" fill="#a6e7f0"/></g></g><g><path d="m216.325 171.969c50.621 31.658 56.217 25.837 113.211 40.791l.25-21.831c.063-5.526-4.141-10.169-9.646-10.652l-7.791-.684c-44.08-3.87-86.44-18.94-123.06-43.79l-11.38-7.73c-3.098-2.102-6.886-1.418-9.203.878z" fill="#ffcebf"/></g><g><path d="m163.158 485.963c3.83-19.14 15.67-35.72 32.52-45.56l35.99-21.012c-2.968-1.446-5.895-3.012-8.76-4.727l-20.96-13.14-43.85 25.6c-16.85 9.84-28.69 26.42-32.52 45.56l-1.823 9.121c-1.261 6.306 3.563 12.189 9.994 12.189h27.804z" fill="#6bd9e7"/></g></g></svg>