<svg height="512" viewBox="0 0 56 57" width="512" xmlns="http://www.w3.org/2000/svg"><g id="Page-1" fill="none" fill-rule="evenodd"><g id="079---Throat-Infection" fill-rule="nonzero"><path id="Shape" d="m29 39c-.3922522-.000007-.7482786-.2293418-.9104802-.5864867-.1622015-.3571449-.1006218-.7761403.1574802-1.0715133l6.6-7.55c.3642219-.4124618.9932409-.4531711 1.4075898-.0910974.4143488.3620737.458326.9908728.0984102 1.4070974l-6.6 7.55c-.1894083.2179635-.4642389.3427869-.753.342z" fill="#bcc2c6"/><path id="Shape" d="m28.043 43.16h3c6.0751322 0 11 4.9248678 11 11 0 1.1045695-.8954305 2-2 2h-38c-1.1045695 0-2-.8954305-2-2 0-6.0751322 4.92486775-11 11-11h3" fill="#3b96d2"/><path id="Shape" d="m26.123 34.06h-.01c-.7774244 1.2208051-1.1517096 2.6549819-1.07 4.1 0 3 3 5 3 5 0 3.8659932-3.1340068 7-7 7s-7-3.1340068-7-7c0 0 3-2 3-5 .0817096-1.4450181-.2925756-2.8791949-1.07-4.1z" fill="#f8c694"/><path id="Shape" d="m33.793 18.235v-8.075h-24.75v8c-2.209139 0-4 1.790861-4 4s1.790861 4 4 4c0 0 3 9 12 9s12-9 12-9c2.0551946-.010628 3.7678868-1.5770016 3.9615222-3.6230815.1936353-2.0460799-1.1948081-3.9059364-3.2115222-4.3019185z" fill="#fcd6ac"/><path id="Shape" d="m33.793 18.23s3.877-10.667-2.584-14.667c-5.809-3.597-19.984 1.437-25.597-3.338-.30529135-.23644677-.71943665-.27599226-1.06395834-.10159418-.3445217.17439808-.55784666.53157119-.54804166.91759418.02821184 1.75778654.22917851 3.50854115.6 5.227 1.13486319 4.9585692 5.8311034 8.2594464 10.881 7.648 2.3072647-.2168062 4.5634532-.8099888 6.679-1.756 5.879-3 10.337.737 11.629 6.07" fill="#ca8152"/><circle id="Oval" cx="43" cy="21" fill="#efc319" r="12"/><path id="Shape" d="m43 34c-7.1797017 0-13-5.8202983-13-13s5.8202983-13 13-13 13 5.8202983 13 13c-.008266 7.1762751-5.8237249 12.991734-13 13zm0-24c-6.0751322 0-11 4.9248678-11 11s4.9248678 11 11 11 11-4.9248678 11-11c-.0071635-6.0721626-4.9278374-10.9928365-11-11z" fill="#ebeff0"/><g fill="#338f7c"><path id="Shape" d="m43 16c-.5522847 0-1-.4477153-1-1v-2c0-.5522847.4477153-1 1-1s1 .4477153 1 1v2c0 .5522847-.4477153 1-1 1z"/><path id="Shape" d="m40 16.8c-.3576137.0003484-.6881932-.1902972-.867-.5l-1-1.732c-.1814844-.3095704-.1831833-.6926495-.0044519-1.0038174.1787315-.311168.5104885-.5027136.8693336-.5019247s.6897567.1937913.8671183.5057421l1 1.732c.1785415.3092425.1786393.6902222.0002566.9995563s-.5081742.5000777-.8652566.5004437z"/><path id="Shape" d="m37.8 19c-.1755887.0003718-.3481299-.0458692-.5-.134l-1.732-1c-.4742136-.2780058-.6351286-.886647-.3602745-1.3626943.274854-.4760473.8824145-.640996 1.3602745-.3693057l1.732 1c.3919413.2263139.5830208.6876562.4658809 1.1248223-.1171398.4371661-.5132928.7411578-.9658809.7411777z"/><path id="Shape" d="m37 22h-2c-.5522847 0-1-.4477153-1-1s.4477153-1 1-1h2c.5522847 0 1 .4477153 1 1s-.4477153 1-1 1z"/><path id="Shape" d="m36.073 26c-.4525881-.0000199-.8487411-.3040116-.9658809-.7411777-.1171399-.4371661.0739396-.8985084.4658809-1.1248223l1.732-1c.47786-.2716903 1.0854205-.1067416 1.3602745.3693057.2748541.4760473.1139391 1.0846885-.3602745 1.3626943l-1.732 1c-.1518701.0881308-.3244113.1343718-.5.134z"/><path id="Shape" d="m39 28.928c-.3570824-.000366-.6868739-.1911096-.8652566-.5004437s-.1782849-.6903138.0002566-.9995563l1-1.732c.2780058-.4742136.886647-.6351286 1.3626943-.3602745.4760473.274854.640996.8824145.3693057 1.3602745l-1 1.732c-.1788068.3097028-.5093863.5003484-.867.5z"/><path id="Shape" d="m43 30c-.5522847 0-1-.4477153-1-1v-2c0-.5522847.4477153-1 1-1s1 .4477153 1 1v2c0 .5522847-.4477153 1-1 1z"/><path id="Shape" d="m47 28.928c-.3576137.0003484-.6881932-.1902972-.867-.5l-1-1.732c-.2716903-.47786-.1067416-1.0854205.3693057-1.3602745.4760473-.2748541 1.0846885-.1139391 1.3626943.3602745l1 1.732c.1785415.3092425.1786393.6902222.0002566.9995563s-.5081742.5000777-.8652566.5004437z"/><path id="Shape" d="m49.927 26c-.1755887.0003718-.3481299-.0458692-.5-.134l-1.732-1c-.3119508-.1773616-.5049532-.5082732-.5057421-.8671183s.1907567-.6906021.5019247-.8693336c.3111679-.1787314.694247-.1770325 1.0038174.0044519l1.732 1c.3919413.2263139.5830208.6876562.4658809 1.1248223-.1171398.4371661-.5132928.7411578-.9658809.7411777z"/><path id="Shape" d="m51 22h-2c-.5522847 0-1-.4477153-1-1s.4477153-1 1-1h2c.5522847 0 1 .4477153 1 1s-.4477153 1-1 1z"/><path id="Shape" d="m48.2 19c-.4525881-.0000199-.8487411-.3040116-.9658809-.7411777-.1171399-.4371661.0739396-.8985084.4658809-1.1248223l1.732-1c.47786-.2716903 1.0854205-.1067416 1.3602745.3693057.2748541.4760473.1139391 1.0846885-.3602745 1.3626943l-1.732 1c-.1518701.0881308-.3244113.1343718-.5.134z"/><path id="Shape" d="m46 16.8c-.3570824-.000366-.6868739-.1911096-.8652566-.5004437s-.1782849-.6903138.0002566-.9995563l1-1.732c.2780058-.4742136.886647-.6351286 1.3626943-.3602745.4760473.274854.640996.8824145.3693057 1.3602745l-1 1.732c-.1788068.3097028-.5093863.5003484-.867.5z"/></g><circle id="Oval" cx="19" cy="43" fill="#d15627" r="1"/><circle id="Oval" cx="23" cy="43" fill="#d15627" r="1"/><circle id="Oval" cx="21" cy="46" fill="#d15627" r="1"/><circle id="Oval" cx="21" cy="40" fill="#d15627" r="1"/><circle id="Oval" cx="43" cy="21" fill="#26b899" r="6"/><circle id="Oval" cx="41" cy="20" fill="#fff" r="1"/><circle id="Oval" cx="45" cy="22" fill="#fff" r="1"/></g></g></svg>